# xmcd CD database file
#
# Track frame offsets:
#	150
#	1208
#	22331
#	46959
#	61791
#	75744
#	93459
#	110461
#	115824
#	155403
#	159666
#	179844
#	199029
#	216808
#
# Disc length: 3226 seconds
#
# Revision: 0
# Processed by: cddbd v1.5PL3 Copyright (c) Steve Scherf et al.
# Submitted via: CDex 1.50
#
DISCID=b90c980e
DTITLE=Heilig IJs - Andere inslag
DYEAR=2000
DGENRE=Nederhop
TTITLE0=Lesson one
TTITLE1=Waarsprekers deel 1
TTITLE2=Ilar lawyer
TTITLE3=Andere inslag
TTITLE4=We try to be
TTITLE5=Lesson one too
TTITLE6=The heart of the matter
TTITLE7=Rik skit 1
TTITLE8=Connecties
TTITLE9=Schreeuw van woede
TTITLE10=Straten vol woede
TTITLE11=Sporen zonder grenzen
TTITLE12=Draai "F" voor fonk
TTITLE13=Now you must
EXTD=YEAR: 2000
EXTT0=
EXTT1=
EXTT2=
EXTT3=
EXTT4=
EXTT5=
EXTT6=
EXTT7=
EXTT8=
EXTT9=
EXTT10=
EXTT11=
EXTT12=
EXTT13=
PLAYORDER=
